<?xml version="1.0" standalone="no"?>
<!DOCTYPE svg PUBLIC "-//W3C//DTD SVG 20010904//EN"
 "http://www.w3.org/TR/2001/REC-SVG-20010904/DTD/svg10.dtd">
<svg version="1.0" xmlns="http://www.w3.org/2000/svg"
 width="500.000000pt" height="500.000000pt" viewBox="0 0 500.000000 500.000000"
 preserveAspectRatio="xMidYMid meet">
<metadata>
Created by potrace 1.14, written by Peter Selinger 2001-2017
</metadata>
<g transform="translate(0.000000,500.000000) scale(0.100000,-0.100000)"
fill="#000000" stroke="none">
<path d="M2635 4474 c-231 -33 -557 -165 -790 -321 -177 -119 -425 -346 -425
-389 0 -30 48 -101 84 -123 58 -36 84 -29 151 42 208 218 463 386 775 510 199
79 374 111 415 77 61 -51 57 -194 -11 -400 -60 -177 -254 -525 -439 -784 -43
-61 -49 -65 -93 -71 -321 -41 -554 -146 -850 -385 -127 -102 -373 -346 -464
-460 -74 -92 -137 -205 -162 -289 -46 -157 13 -374 116 -427 44 -23 154 -15
233 17 85 35 157 85 303 212 323 283 715 714 967 1066 l60 84 95 -6 c106 -6
224 -39 304 -85 27 -16 89 -64 137 -108 l87 -79 -121 -41 c-260 -87 -423 -162
-650 -302 -115 -70 -161 -106 -242 -187 -110 -109 -152 -178 -162 -265 -5 -46
-4 -51 29 -84 60 -60 118 -56 118 9 0 83 144 234 357 375 264 175 651 334 974
400 143 30 332 26 399 -7 52 -26 80 -66 80 -115 0 -82 -118 -258 -264 -396
-209 -194 -527 -352 -813 -402 -65 -12 -73 -16 -73 -35 0 -33 41 -88 80 -107
25 -13 59 -18 122 -18 279 0 381 -111 283 -308 -76 -150 -325 -327 -592 -419
-107 -36 -243 -38 -320 -4 -66 29 -87 26 -91 -17 -4 -44 43 -91 123 -123 52
-20 77 -23 190 -23 121 -1 137 2 222 31 275 96 533 282 609 439 39 82 45 204
15 285 -28 74 -80 139 -148 186 l-55 37 29 13 c240 105 375 187 521 315 120
106 206 210 255 307 36 73 42 95 46 162 3 67 0 85 -24 136 -51 113 -179 201
-326 224 -92 14 -241 6 -369 -21 -52 -11 -96 -20 -97 -20 -1 0 -4 14 -8 31
-10 43 -136 173 -232 239 -83 58 -194 108 -292 133 -35 9 -66 18 -68 20 -2 3
34 62 80 133 265 406 362 646 361 894 0 96 -4 125 -24 175 -49 128 -131 216
-230 250 -50 16 -138 25 -185 19z m-475 -1710 c0 -9 -159 -203 -254 -309 -194
-217 -329 -355 -516 -527 -199 -183 -263 -233 -346 -268 l-47 -20 5 63 c11
133 93 254 342 502 306 304 478 431 721 531 82 34 95 38 95 28z"/>
<path d="M2773 2033 c-104 -175 -197 -392 -257 -593 -55 -189 -96 -443 -96
-602 l0 -91 36 -33 c77 -73 114 -54 114 58 0 181 47 438 120 659 50 153 157
389 223 492 49 76 49 108 -2 158 -61 61 -77 55 -138 -48z"/>
</g>
</svg>
